<svg width="48" height="48" viewBox="0 0 48 48" fill="none" xmlns="http://www.w3.org/2000/svg">
<rect width="48" height="48" rx="24" fill="white"/>
<path d="M24 38.4C20.1809 38.4 16.5182 36.8828 13.8177 34.1823C11.1171 31.4818 9.59999 27.8191 9.59999 24C9.59999 20.1809 11.1171 16.5182 13.8177 13.8176C16.5182 11.1171 20.1809 9.59998 24 9.59997L24 24L24 38.4Z" fill="#0779FF"/>
<path d="M38.4 24C38.4 25.891 38.0275 27.7635 37.3039 29.5106C36.5802 31.2577 35.5195 32.8451 34.1823 34.1823C32.8452 35.5195 31.2577 36.5802 29.5106 37.3038C27.7635 38.0275 25.891 38.4 24 38.4L24 24L38.4 24Z" fill="#FBC813"/>
</svg>
