<svg width="80" height="118" viewBox="0 0 80 118" fill="none" xmlns="http://www.w3.org/2000/svg">
<path d="M40 80C29.3913 80 19.2172 75.7857 11.7157 68.2843C4.21428 60.7828 5.41722e-06 50.6087 5.88094e-06 40C6.34466e-06 29.3913 4.21428 19.2172 11.7157 11.7157C19.2172 4.21427 29.3913 -6.10312e-07 40 -1.74846e-06L40 40L40 80Z" fill="#0779FF"/>
<path d="M80 40C80 45.2529 78.9654 50.4543 76.9552 55.3073C74.945 60.1604 71.9986 64.5699 68.2843 68.2843C64.5699 71.9986 60.1604 74.945 55.3073 76.9552C50.4543 78.9654 45.2529 80 40 80L40 40L80 40Z" fill="#FBC813"/>
<path d="M22.4599 105.089C22.3534 104.744 22.2064 104.435 22.0189 104.163C21.8356 103.886 21.614 103.649 21.3541 103.453C21.0984 103.257 20.8044 103.11 20.472 103.012C20.1396 102.91 19.7774 102.859 19.3853 102.859C18.6822 102.859 18.0558 103.036 17.5061 103.389C16.9564 103.743 16.5238 104.263 16.2085 104.949C15.8974 105.631 15.7419 106.462 15.7419 107.442C15.7419 108.43 15.8974 109.268 16.2085 109.954C16.5196 110.64 16.9521 111.162 17.5061 111.52C18.0601 111.874 18.7035 112.05 19.4365 112.05C20.1012 112.05 20.6765 111.923 21.1623 111.667C21.6524 111.411 22.0295 111.049 22.2937 110.58C22.5579 110.107 22.69 109.553 22.69 108.918L23.227 109.001H19.673V107.148H24.9848V108.72C24.9848 109.841 24.7461 110.81 24.2689 111.629C23.7916 112.447 23.1353 113.077 22.3001 113.521C21.4649 113.96 20.5061 114.179 19.4237 114.179C18.2177 114.179 17.1588 113.908 16.2468 113.367C15.3392 112.822 14.6297 112.048 14.1183 111.047C13.6112 110.041 13.3576 108.848 13.3576 107.467C13.3576 106.411 13.5068 105.467 13.8051 104.636C14.1076 103.805 14.5295 103.099 15.0707 102.52C15.6119 101.936 16.2468 101.493 16.9755 101.19C17.7042 100.884 18.4968 100.73 19.3534 100.73C20.0778 100.73 20.7532 100.837 21.3797 101.05C22.0061 101.259 22.5622 101.557 23.048 101.945C23.538 102.332 23.9407 102.793 24.2561 103.325C24.5714 103.858 24.7781 104.446 24.8761 105.089H22.4599ZM27.5356 114V104.182H29.7792V105.818H29.8815C30.0605 105.251 30.3673 104.815 30.802 104.508C31.2409 104.197 31.7416 104.041 32.3041 104.041C32.4319 104.041 32.5747 104.048 32.7324 104.06C32.8943 104.069 33.0285 104.084 33.1351 104.105V106.234C33.0371 106.2 32.8815 106.17 32.6685 106.144C32.4596 106.114 32.2572 106.099 32.0612 106.099C31.6393 106.099 31.2601 106.191 30.9234 106.374C30.591 106.553 30.329 106.803 30.1372 107.122C29.9454 107.442 29.8496 107.81 29.8496 108.228V114H27.5356ZM37.6819 114.198C37.0597 114.198 36.4993 114.087 36.0008 113.866C35.5064 113.64 35.1144 113.308 34.8246 112.869C34.5391 112.43 34.3963 111.888 34.3963 111.245C34.3963 110.691 34.4986 110.233 34.7032 109.871C34.9077 109.509 35.1868 109.219 35.5405 109.001C35.8942 108.784 36.2927 108.62 36.7358 108.509C37.1833 108.394 37.6456 108.311 38.1229 108.26C38.6982 108.2 39.1648 108.147 39.5228 108.1C39.8807 108.049 40.1407 107.972 40.3026 107.87C40.4688 107.763 40.5519 107.599 40.5519 107.378V107.339C40.5519 106.858 40.4091 106.485 40.1236 106.221C39.8381 105.957 39.4269 105.825 38.89 105.825C38.3232 105.825 37.8736 105.948 37.5412 106.195C37.2131 106.442 36.9915 106.734 36.8765 107.071L34.716 106.764C34.8864 106.168 35.1677 105.669 35.5597 105.268C35.9517 104.864 36.4312 104.561 36.9979 104.361C37.5647 104.156 38.1911 104.054 38.8772 104.054C39.3502 104.054 39.8211 104.109 40.2898 104.22C40.7586 104.331 41.1868 104.514 41.5746 104.77C41.9624 105.021 42.2735 105.364 42.5079 105.799C42.7465 106.234 42.8658 106.777 42.8658 107.429V114H40.6414V112.651H40.5647C40.424 112.924 40.2259 113.18 39.9702 113.418C39.7188 113.653 39.4013 113.842 39.0178 113.987C38.6385 114.128 38.1932 114.198 37.6819 114.198ZM38.2827 112.498C38.7472 112.498 39.1499 112.406 39.4908 112.223C39.8317 112.036 40.0938 111.788 40.277 111.482C40.4645 111.175 40.5583 110.84 40.5583 110.478V109.321C40.4858 109.381 40.3623 109.436 40.1875 109.487C40.0171 109.538 39.8253 109.583 39.6123 109.621C39.3992 109.66 39.1883 109.694 38.9794 109.724C38.7706 109.754 38.5895 109.779 38.4361 109.8C38.091 109.847 37.782 109.924 37.5093 110.031C37.2365 110.137 37.0213 110.286 36.8637 110.478C36.706 110.665 36.6272 110.908 36.6272 111.207C36.6272 111.633 36.7827 111.955 37.0938 112.172C37.4049 112.389 37.8012 112.498 38.2827 112.498ZM50.5255 104.182V105.972H44.7215V104.182H50.5255ZM46.1725 114V103.255C46.1725 102.594 46.3089 102.045 46.5816 101.606C46.8586 101.167 47.2294 100.839 47.6938 100.621C48.1583 100.404 48.674 100.295 49.2407 100.295C49.6413 100.295 49.9971 100.327 50.3082 100.391C50.6193 100.455 50.8494 100.513 50.9985 100.564L50.5383 102.354C50.4403 102.324 50.3167 102.294 50.1676 102.264C50.0184 102.23 49.8522 102.213 49.669 102.213C49.2386 102.213 48.9339 102.317 48.7549 102.526C48.5802 102.731 48.4929 103.025 48.4929 103.408V114H46.1725ZM55.0116 108.247V114H52.6977V100.909H54.9605V105.85H55.0755C55.3056 105.296 55.6614 104.859 56.143 104.54C56.6288 104.216 57.2467 104.054 57.9967 104.054C58.6785 104.054 59.273 104.197 59.7801 104.482C60.2872 104.768 60.6792 105.185 60.9562 105.735C61.2374 106.285 61.3781 106.956 61.3781 107.749V114H59.0641V108.107C59.0641 107.446 58.8937 106.933 58.5528 106.566C58.2161 106.195 57.7431 106.01 57.1338 106.01C56.7247 106.01 56.3582 106.099 56.0343 106.278C55.7147 106.453 55.4633 106.707 55.2801 107.039C55.1011 107.371 55.0116 107.774 55.0116 108.247ZM64.0967 114V104.182H66.4107V114H64.0967ZM65.2601 102.788C64.8936 102.788 64.5783 102.667 64.3141 102.424C64.0499 102.177 63.9178 101.881 63.9178 101.536C63.9178 101.186 64.0499 100.89 64.3141 100.647C64.5783 100.4 64.8936 100.276 65.2601 100.276C65.6308 100.276 65.9462 100.4 66.2061 100.647C66.4703 100.89 66.6024 101.186 66.6024 101.536C66.6024 101.881 66.4703 102.177 66.2061 102.424C65.9462 102.667 65.6308 102.788 65.2601 102.788Z" fill="black"/>
</svg>
